<svg xmlns="http://www.w3.org/2000/svg" width="600" height="900" viewBox="0 0 600 900">
  <defs>
    
  </defs>
  
  <g opacity="0.55">
    <rect class="p" x="32" y="62" width="2" height="2"></rect>
    <rect class="o" x="84" y="120" width="5" height="5"></rect>
    <rect class="p" x="148" y="48" width="2" height="2"></rect>
    <rect class="o" x="218" y="180" width="4" height="4"></rect>
    <rect class="p" x="290" y="78" width="2" height="2"></rect>
    <rect class="p" x="356" y="142" width="3" height="3"></rect>
    <rect class="o" x="412" y="92" width="5" height="5"></rect>
    <rect class="p" x="478" y="34" width="2" height="2"></rect>
    <rect class="p" x="540" y="160" width="2" height="2"></rect>
    <rect class="o" x="68" y="240" width="4" height="4"></rect>
    <rect class="p" x="128" y="280" width="2" height="2"></rect>
    <rect class="o" x="196" y="310" width="6" height="6"></rect>
    <rect class="p" x="262" y="226" width="2" height="2"></rect>
    <rect class="p" x="324" y="296" width="3" height="3"></rect>
    <rect class="o" x="388" y="248" width="4" height="4"></rect>
    <rect class="p" x="452" y="306" width="2" height="2"></rect>
    <rect class="p" x="516" y="262" width="2" height="2"></rect>
    <rect class="o" x="44" y="380" width="5" height="5"></rect>
    <rect class="p" x="112" y="436" width="2" height="2"></rect>
    <rect class="p" x="176" y="402" width="3" height="3"></rect>
    <rect class="o" x="244" y="462" width="4" height="4"></rect>
    <rect class="p" x="312" y="418" width="2" height="2"></rect>
    <rect class="o" x="378" y="486" width="5" height="5"></rect>
    <rect class="p" x="442" y="402" width="2" height="2"></rect>
    <rect class="p" x="508" y="456" width="3" height="3"></rect>
    <rect class="o" x="568" y="412" width="4" height="4"></rect>
    <rect class="p" x="56" y="528" width="2" height="2"></rect>
    <rect class="o" x="124" y="586" width="4" height="4"></rect>
    <rect class="p" x="194" y="542" width="2" height="2"></rect>
    <rect class="p" x="258" y="606" width="3" height="3"></rect>
    <rect class="o" x="326" y="566" width="6" height="6"></rect>
    <rect class="p" x="394" y="620" width="2" height="2"></rect>
    <rect class="p" x="458" y="558" width="2" height="2"></rect>
    <rect class="o" x="524" y="612" width="4" height="4"></rect>
    <rect class="p" x="78" y="688" width="2" height="2"></rect>
    <rect class="o" x="148" y="744" width="5" height="5"></rect>
    <rect class="p" x="216" y="702" width="3" height="3"></rect>
    <rect class="p" x="284" y="760" width="2" height="2"></rect>
    <rect class="o" x="348" y="712" width="4" height="4"></rect>
    <rect class="p" x="416" y="780" width="2" height="2"></rect>
    <rect class="p" x="482" y="724" width="3" height="3"></rect>
    <rect class="o" x="552" y="770" width="4" height="4"></rect>
    <rect class="p" x="22" y="832" width="2" height="2"></rect>
    <rect class="o" x="92" y="858" width="4" height="4"></rect>
    <rect class="p" x="164" y="822" width="2" height="2"></rect>
    <rect class="p" x="234" y="868" width="3" height="3"></rect>
  </g>
  
  <g opacity="0.18" stroke="#5BFFB0" stroke-width="0.5" fill="none">
    <line x1="100" y1="0" x2="100" y2="120"></line>
    <line x1="248" y1="180" x2="248" y2="340"></line>
    <line x1="392" y1="80" x2="392" y2="220"></line>
    <line x1="494" y1="280" x2="494" y2="460"></line>
    <line x1="178" y1="420" x2="178" y2="560"></line>
    <line x1="340" y1="500" x2="340" y2="640"></line>
    <line x1="558" y1="540" x2="558" y2="700"></line>
    <line x1="60" y1="640" x2="60" y2="800"></line>
    <line x1="216" y1="720" x2="216" y2="880"></line>
    <line x1="430" y1="700" x2="430" y2="870"></line>
  </g>
</svg>